<svg xmlns="http://www.w3.org/2000/svg" viewBox="0 0 64 64">
  <rect width="64" height="64" rx="14" fill="#6366f1"/>
  <path d="M18 15h20a8 8 0 0 1 8 8v26H26a8 8 0 0 0-8 8V15z" fill="#eef2ff"/>
  <path d="M18 15h18a8 8 0 0 1 8 8v24H26a8 8 0 0 0-8 8V15z" fill="#ffffff"/>
  <path d="M18 15v40a8 8 0 0 1 8-8h20V23a8 8 0 0 0-8-8H18z" fill="none" stroke="#312e81" stroke-width="3" stroke-linejoin="round"/>
  <path d="M25 25h13M25 33h13M25 41h9" stroke="#6366f1" stroke-width="3" stroke-linecap="round"/>
</svg>
